<?xml version="1.0" standalone="no"?>
<!DOCTYPE svg PUBLIC "-//W3C//DTD SVG 20010904//EN"
 "http://www.w3.org/TR/2001/REC-SVG-20010904/DTD/svg10.dtd">
<svg version="1.0" xmlns="http://www.w3.org/2000/svg"
 width="116.000000pt" height="116.000000pt" viewBox="0 0 116.000000 116.000000"
 preserveAspectRatio="xMidYMid meet">
<metadata>
Created by potrace 1.11, written by Peter Selinger 2001-2013
</metadata>
<g transform="translate(0.000000,116.000000) scale(0.100000,-0.100000)"
fill="#000000" stroke="none">
<path d="M90 763 c0 -305 3 -410 14 -449 41 -156 153 -261 316 -299 87 -20
274 -14 349 11 164 55 266 180 289 353 4 31 7 218 7 416 l0 360 -155 0 -155 0
-1 -370 c0 -203 -4 -381 -8 -395 -18 -57 -31 -78 -63 -100 -69 -47 -199 -32
-242 28 -39 55 -43 103 -44 480 l-1 362 -153 0 -153 0 0 -397z"/>
</g>
</svg>
